<?xml version="1.0" standalone="yes"?>

<svg version="1.1" viewBox="0.0 0.0 960.0 720.0" fill="none" stroke="none" stroke-linecap="square" stroke-miterlimit="10" xmlns="http://www.w3.org/2000/svg" xmlns:xlink="http://www.w3.org/1999/xlink"><clipPath id="p.0"><path d="m0 0l960.0 0l0 720.0l-960.0 0l0 -720.0z" clip-rule="nonzero"></path></clipPath><g clip-path="url(#p.0)"><path fill="#000000" fill-opacity="0.0" d="m0 0l960.0 0l0 720.0l-960.0 0z" fill-rule="evenodd"></path><path fill="#000000" d="m521.0883 397.92447c0 15.327209 -12.26178 24.52353 -24.52353 24.52353c-12.26178 0 -21.4581 -9.19632 -21.4581 -24.52353c0 -12.261749 9.19632 -21.458069 21.4581 -21.458069c12.261749 0 24.52353 9.19632 24.52353 21.458069zm0 0c0 0 0 0 0 0" fill-rule="evenodd"></path><path fill="#000000" d="m623.85486 318.97202c0 0 0 0 0 0c0 -106.364105 0 -106.364105 0 -106.364105c0 -18.23265 -15.141602 -33.42752 -33.312195 -33.42752c-239.2591 0 -239.2591 0 -239.2591 0c-33.31537 0 -63.59857 27.348969 -63.59857 63.817276c0 230.96388 0 230.96388 0 230.96388c0 36.4653 30.283203 66.85803 63.59857 66.85803c208.97272 0 208.97272 0 208.97272 0c36.341125 0 63.59857 -30.39273 63.59857 -66.85803c0 -15.194855 0 -15.194855 0 -15.194855c48.460144 -36.468323 48.460144 -106.36716 0 -139.79468zm-272.5713 -118.52121c239.2591 0 239.2591 0 239.2591 0c6.0547485 0 12.112671 6.0785522 12.112671 12.1571045c0 72.936615 0 72.936615 0 72.936615c-3.0289917 -3.040802 -9.083679 -3.040802 -12.112671 -3.040802c0 -57.73871 0 -57.73871 0 -57.73871c0 -6.0785522 -6.0579224 -12.1571045 -12.115845 -12.1571045c-242.28485 0 -242.28485 0 -242.28485 0c-9.086884 0 -12.115845 6.0785522 -12.115845 12.1571045c0 45.584625 0 45.584625 0 45.584625c-9.086884 -6.0785522 -12.11264 -18.235657 -12.11264 -27.351974c0 -24.311203 18.170563 -42.54686 39.370087 -42.54686zm227.14325 36.468292c-242.28485 0 -242.28485 0 -242.28485 0c0 -12.154083 0 -12.154083 0 -12.154083c242.28485 0 242.28485 0 242.28485 0l0 12.154083zm0 12.15712c0 9.116318 0 9.116318 0 9.116318c-242.28485 0 -242.28485 0 -242.28485 0c0 -9.116318 0 -9.116318 0 -9.116318l242.28485 0zm0 21.273422c0 12.154083 0 12.154083 0 12.154083c-227.14325 0 -227.14325 0 -227.14325 0c-6.0579224 0 -12.115845 0 -15.141602 -3.0377502c0 -9.116333 0 -9.116333 0 -9.116333l242.28485 0zm24.228516 203.61191c0 24.311218 -18.170593 42.543823 -42.399048 42.543823c-208.97272 0 -208.97272 0 -208.97272 0c-21.199524 0 -39.370087 -18.232605 -39.370087 -42.543823c0 -182.34149 0 -182.34149 0 -182.34149c9.083679 9.119324 24.228485 15.194855 39.370087 15.194855c239.2591 0 239.2591 0 239.2591 0c6.0547485 0 12.112671 6.0785522 12.112671 12.1571045c0 21.273438 0 21.273438 0 21.273438c-106.000854 0 -106.000854 0 -106.000854 0c-30.283203 0 -57.54065 27.35199 -57.54065 57.74173c0 33.42752 27.257446 60.77951 57.54065 60.77951c106.000854 0 106.000854 0 106.000854 0l0 15.194855zm15.144775 -39.509064c-121.14563 0 -121.14563 0 -121.14563 0c-18.170563 0 -33.312164 -15.194885 -33.312164 -36.4653c0 -18.235657 15.141602 -33.430542 33.312164 -33.430542c106.000854 0 106.000854 0 106.000854 0c6.0579224 0 12.115845 -3.0377502 18.173767 -9.1163025c0 -3.040802 3.0257568 -3.040802 3.0257568 -6.0785522c0 0 0 0 0 0c9.086853 9.1163025 12.115845 24.311188 12.115845 39.506073c0 18.235657 -6.0579224 33.43051 -18.170593 45.584625zm0 0c0 0 0 0 0 0" fill-rule="evenodd"></path></g></svg>

