<?xml version="1.0" standalone="yes"?>

<svg version="1.1" viewBox="0.0 0.0 960.0 720.0" fill="none" stroke="none" stroke-linecap="square" stroke-miterlimit="10" xmlns="http://www.w3.org/2000/svg" xmlns:xlink="http://www.w3.org/1999/xlink"><clipPath id="p.0"><path d="m0 0l960.0 0l0 720.0l-960.0 0l0 -720.0z" clip-rule="nonzero"></path></clipPath><g clip-path="url(#p.0)"><path fill="#000000" fill-opacity="0.0" d="m0 0l960.0 0l0 720.0l-960.0 0z" fill-rule="evenodd"></path><path fill="#000000" d="m500.62057 349.6916c5.6983643 0 10.300842 -4.5987244 10.300842 -10.308411c0 -5.6907654 -4.602478 -10.30838 -10.300842 -10.30838c-5.6983337 0 -10.323517 4.6176147 -10.323517 10.30838c0 5.7096863 4.625183 10.308411 10.323517 10.308411m92.813446 -113.3622c5.7020874 0 10.300842 4.6176147 10.300842 10.308411c0 5.709671 -4.598755 10.304611 -10.300842 10.304611c-5.6983643 0 -10.319763 -4.59494 -10.319763 -10.304611c0 -5.690796 4.621399 -10.308411 10.319763 -10.308411m0 41.229843c17.07611 0 30.92517 -13.856659 30.92517 -30.921432c0 -17.068573 -13.84906 -30.902542 -30.92517 -30.902542c-17.095032 0 -30.944153 13.833969 -30.944153 30.902542c0 17.064774 13.849121 30.921432 30.944153 30.921432m-61.869324 103.0538c5.7020874 0 10.300842 -4.6176453 10.300842 -10.308411c0 -5.6870117 -4.598755 -10.304626 -10.300842 -10.304626c-5.717224 0 -10.319763 4.6176147 -10.319763 10.304626c0 5.6907654 4.602539 10.308411 10.319763 10.308411m-61.888214 -82.440796c-5.6983337 0 -10.300842 4.5987244 -10.300842 10.308411c0 5.690796 4.6025085 10.285736 10.300842 10.285736c5.6983337 0 10.319733 -4.59494 10.319733 -10.285736c0 -5.7096863 -4.621399 -10.308411 -10.319733 -10.308411m-179.45615 251.6452l37.26593 -93.418c5.01062 9.276794 11.226624 18.0737 18.515839 26.239563c11.01123 12.345154 23.783386 22.441956 37.613556 29.935211c0 0 -93.395325 37.243225 -93.395325 37.243225zm42.98694 -163.36627l-79.93169 200.27325l200.40172 -79.878815c-3.5709229 0.4194641 -7.141815 0.60839844 -10.690063 0.60839844c-61.31006 0 -116.83487 -59.243103 -109.77997 -121.00284m266.61658 -29.455261c-4.088623 4.0734863 -10.497314 10.792084 -17.956604 18.580048c-13.289795 13.898224 -33.721436 35.248108 -45.870117 46.414276l-117.88913 -117.81357c11.181305 -12.133514 32.557648 -32.557617 46.448273 -45.824768c7.806885 -7.4554596 14.517944 -13.856644 18.602753 -17.94902c55.78177 -55.759094 163.02621 -86.28375 203.13376 -86.51427c-0.08691406 33.377625 -28.212097 144.89581 -86.46893 203.1073m-78.23505 81.99866c-7.5272217 27.501678 -17.461548 52.671844 -28.450134 72.88812c-4.538269 -12.197784 -11.01123 -25.967499 -20.216248 -40.40985c-3.8505554 -6.0270996 -10.451996 -9.533752 -17.397339 -9.533752c-1.6324158 0 -3.2912598 0.18893433 -4.9236755 0.58947754c-4.001709 0.9862366 -8.109192 1.4888306 -12.171326 1.4888306c-15.160309 0 -29.957855 -6.7790833 -42.77533 -19.585236c-16.343079 -16.331696 -22.793365 -35.856445 -18.103943 -54.916412c2.1047363 -8.589081 -1.507721 -17.552246 -8.948059 -22.294586c-14.472595 -9.197449 -28.234772 -15.662872 -40.451416 -20.174683c20.238922 -11.022583 45.42044 -20.93045 72.94479 -28.469025c0.55926514 -0.1435852 1.0126953 -0.5025635 1.5492859 -0.7104187l119.65378 119.59714c-0.19647217 0.52145386 -0.5592041 0.9635925 -0.7103882 1.5303955m181.60626 -302.21606c-2.3428345 -2.3503876 -8.105408 -3.5028992 -16.448853 -3.5028992c-43.56891 0 -157.30896 31.71875 -218.16556 92.55646c-14.344116 14.336548 -61.892 58.067917 -72.9259 72.86546c-35.697784 9.783142 -87.67435 29.326782 -116.66107 58.2984c0 0 35.376587 0.124694824 78.53357 27.607452c-6.2764893 25.566956 1.6777649 52.543396 23.549103 74.39963c17.030792 17.023224 37.1828 25.631195 57.35373 25.631195c5.7210083 0 11.438232 -0.6914978 17.095001 -2.1009827c27.482788 43.141907 27.633942 78.49579 27.633942 78.49579c28.990509 -28.971619 48.556793 -80.92929 58.321075 -116.59683c14.816467 -11.022583 58.578003 -58.5289 72.92212 -72.86545c72.49133 -72.44977 103.375 -220.2174 88.79285 -234.78822" fill-rule="evenodd"></path></g></svg>

