<?xml version="1.0" standalone="yes"?>

<svg version="1.1" viewBox="0.0 0.0 960.0 720.0" fill="none" stroke="none" stroke-linecap="square" stroke-miterlimit="10" xmlns="http://www.w3.org/2000/svg" xmlns:xlink="http://www.w3.org/1999/xlink"><clipPath id="p.0"><path d="m0 0l960.0 0l0 720.0l-960.0 0l0 -720.0z" clip-rule="nonzero"></path></clipPath><g clip-path="url(#p.0)"><path fill="#000000" fill-opacity="0.0" d="m0 0l960.0 0l0 720.0l-960.0 0z" fill-rule="evenodd"></path><path fill="#000000" d="m501.22153 381.22153l-42.44693 0l0 42.42749l42.44693 0c0 0 0 -42.42749 0 -42.42749zm-84.87442 127.32138l42.42749 0l0 -21.225433l-42.42749 0c0 0 0 21.225433 0 21.225433zm84.87442 0l42.42746 0l0 -21.225433l-42.42746 0c0 0 0 21.225433 0 21.225433zm21.225433 -190.99374c-5.878235 0 -10.612732 4.757843 -10.612732 10.612701c0 5.878235 4.734497 10.612732 10.612732 10.612732c5.8548584 0 10.608826 -4.734497 10.608826 -10.612732c0 -5.8548584 -4.7539673 -10.612701 -10.608826 -10.612701m-190.99374 84.897766c0 -23.450653 19.000183 -42.44693 42.44693 -42.44693c23.431213 0 42.44696 18.996277 42.44696 42.44693c0 23.427338 -19.015747 42.423615 -42.44696 42.423615c-23.446747 0 -42.44693 -18.996277 -42.44693 -42.423615m297.0897 0c0 23.427338 -18.996277 42.423615 -42.44696 42.423615c-23.427307 0 -42.44696 -18.996277 -42.44696 -42.423615c0 -23.450653 19.019653 -42.44693 42.44696 -42.44693c23.450684 0 42.44696 18.996277 42.44696 42.44693m63.648987 -84.897766l-31.834229 0c-5.8587646 0 -10.593262 4.757843 -10.593262 10.612701c0 5.878235 4.734497 10.612732 10.593262 10.612732l31.834229 0l0 53.05963l-43.505066 0c-5.0807495 -30.083588 -31.079529 -53.05963 -62.59088 -53.05963c-35.164307 0 -63.648987 28.508026 -63.648987 63.672333c0 35.14099 28.48468 63.649017 63.648987 63.649017c31.511353 0 57.51013 -22.976044 62.59088 -53.04019l43.505066 0l0 116.70865l-424.3877 0l0 -116.70865l43.505096 0c5.080719 30.064148 31.079529 53.04019 62.59085 53.04019c35.144867 0 63.649017 -28.508026 63.649017 -63.649017c0 -35.164307 -28.50415 -63.672333 -63.649017 -63.672333c-31.511322 0 -57.51013 22.976044 -62.59085 53.05963l-43.505096 0l0 -53.05963l31.834229 0c5.858795 0 10.593262 -4.734497 10.593262 -10.612732c0 -5.8548584 -4.7344666 -10.612701 -10.593262 -10.612701l-31.834229 0l0 -21.202057c0 -11.713684 9.488403 -21.221527 21.225433 -21.221527l381.93686 0c11.717529 0 21.225403 9.507843 21.225403 21.221527c0 0 0 21.202057 0 21.202057zm-21.225403 254.64273l-381.93686 0c-11.73703 0 -21.225433 -9.507874 -21.225433 -21.225403l424.3877 0c0 11.717529 -9.507874 21.225403 -21.225403 21.225403m-297.06635 -339.51324l212.1958 0l0 21.221527l-212.1958 0c0 0 0 -21.221527 0 -21.221527zm297.06635 21.221527l0 -65.61362c12.343872 -4.3687897 21.225403 -16.039658 21.225403 -29.869629c0 -17.591888 -14.24231 -31.834236 -31.834229 -31.834236c-17.572449 0 -31.814758 14.242348 -31.814758 31.834236c0 13.829971 8.881531 25.50084 21.221497 29.869629l0 65.61362l-42.4469 0l0 -21.221527c0 -11.713669 -9.507874 -21.225418 -21.221558 -21.225418l-212.1958 0c-11.733093 0 -21.221527 9.511749 -21.221527 21.225418l0 21.221527l-63.648987 0c-23.450684 0 -42.44696 19.000168 -42.44696 42.446945l0 254.61938c0 23.450684 18.996277 42.450806 42.44696 42.450806l381.93686 0c23.450684 0 42.450806 -19.000122 42.450806 -42.450806l0 -254.61938c0 -23.446777 -19.000122 -42.446945 -42.450806 -42.446945m-190.96649 84.874435c5.854889 0 10.608826 -4.734497 10.608826 -10.612732c0 -5.8548584 -4.753937 -10.612701 -10.608826 -10.612701c-5.8587646 0 -10.612701 4.757843 -10.612701 10.612701c0 5.878235 4.753937 10.612732 10.612701 10.612732m-31.838135 -10.612732c0 -5.8548584 -4.730591 -10.612701 -10.612701 -10.612701c-5.854889 0 -10.608826 4.757843 -10.608826 10.612701c0 5.878235 4.753937 10.612732 10.608826 10.612732c5.8821106 0 10.612701 -4.734497 10.612701 -10.612732" fill-rule="evenodd"></path></g></svg>

